<?xml version="1.0" encoding="UTF-8"?>
<svg id="Layer_2" data-name="Layer 2" xmlns="http://www.w3.org/2000/svg" viewBox="0 0 347.2 347.24">
  <defs>
    <style>
      .cls-1, .cls-2 {
        fill: #d3eae9;
      }

      .cls-1, .cls-2, .cls-3, .cls-4 {
        stroke-width: 0px;
      }

      .cls-2 {
        opacity: .1;
      }

      .cls-3 {
        fill: #fff;
        opacity: .2;
      }

      .cls-4 {
        fill: #5cbec6;
      }
    </style>
  </defs>
  <g id="Layer_2-2" data-name="Layer 2">
    <path class="cls-2" d="M347.2,173.6c0,.74,0,1.53-.04,2.27-.39,33.32-10.19,64.32-26.85,90.58-30.77,48.56-84.98,80.78-146.71,80.78-14.5,0-28.57-1.76-42.06-5.13-31.36-7.8-59.3-24.11-81.29-46.33C19.17,264.38,0,221.27,0,173.6c0-24.38,5.02-47.62,14.11-68.67C31.4,64.83,63.34,32.57,103.24,14.86l.04-.04C124.8,5.29,148.56,0,173.6,0c95.88,0,173.6,77.73,173.6,173.6Z"/>
    <g>
      <path class="cls-1" d="M265.1,173.61c0,.39,0,.81-.02,1.2-.21,17.56-5.37,33.9-14.15,47.74-16.22,25.6-44.79,42.58-77.33,42.58-7.64,0-15.06-.93-22.17-2.71-16.53-4.11-31.26-12.71-42.85-24.42-16.38-16.55-26.48-39.27-26.48-64.39,0-12.85,2.64-25.1,7.44-36.19,9.11-21.13,25.95-38.14,46.98-47.47l.02-.02c11.34-5.02,23.86-7.81,37.06-7.81,50.53,0,91.5,40.97,91.5,91.5Z"/>
      <path class="cls-3" d="M248.06,173.61c0,.32,0,.66-.02.97-.17,14.29-4.37,27.59-11.52,38.85-13.2,20.83-36.45,34.65-62.92,34.65-6.22,0-12.25-.76-18.04-2.2-13.45-3.35-25.43-10.34-34.86-19.87-13.33-13.47-21.55-31.96-21.55-52.4,0-10.46,2.15-20.42,6.05-29.45,7.41-17.2,21.11-31.03,38.23-38.63l.02-.02c9.23-4.08,19.42-6.35,30.16-6.35,41.12,0,74.45,33.34,74.45,74.45Z"/>
      <path class="cls-4" d="M134.31,191.11c-10.06,8.82-28.86,33.38-25.72,46.9-16.38-16.55-26.48-39.27-26.48-64.39,0-12.85,2.64-25.1,7.44-36.19,14.18-12.53,40.24-8.39,35.82,4.46-3.45,9.98-11.71,15.49-2.42,21.01,9.3,5.5,25.14,16.18,11.36,28.22Z"/>
      <path class="cls-4" d="M250.93,222.55c-16.22,25.6-44.79,42.58-77.33,42.58-7.64,0-15.06-.93-22.17-2.71,4.69-5.31,16.36-20.2,11.92-32.43-5.52-15.14-6.28-23.06.99-26.86,7.27-3.78,22.08,15.49,30.68,13.78,8.61-1.71,1.74-17.56,11.71-16.88,9.34.64,18.99,21.8,44.19,22.52Z"/>
      <path class="cls-4" d="M265.1,173.61c0,.39,0,.81-.02,1.2-27.54,10.39-19.5-27.15-36.65-31.92-18.59-5.16-.35,30.29-14.81,32.7-14.46,2.42-14.79-11.36-15.49-25.47-.68-14.13-1.45-9.96-24.52-12.71-23.06-2.77-13.43-25.14-15.82-32.72-1.61-5.04-12.79-16.05-21.24-14.77,11.34-5.02,23.86-7.81,37.06-7.81,50.53,0,91.5,40.97,91.5,91.5Z"/>
    </g>
  </g>
</svg>