<?xml version="1.0" encoding="UTF-8"?>
<svg id="Layer_2" data-name="Layer 2" xmlns="http://www.w3.org/2000/svg" viewBox="0 0 347.2 347.24">
  <defs>
    <style>
      .cls-1 {
        fill: #00aaac;
      }

      .cls-1, .cls-2 {
        stroke-width: 0px;
      }

      .cls-2 {
        fill: #d3eae9;
        opacity: .1;
      }
    </style>
  </defs>
  <g id="Layer_2-2" data-name="Layer 2">
    <path class="cls-2" d="M347.2,173.6c0,.74,0,1.53-.04,2.27-.39,33.32-10.19,64.32-26.85,90.58-30.77,48.56-84.98,80.78-146.71,80.78-14.5,0-28.57-1.76-42.06-5.13-31.36-7.8-59.3-24.11-81.29-46.33C19.17,264.38,0,221.27,0,173.6c0-24.38,5.02-47.62,14.11-68.67C31.4,64.83,63.34,32.57,103.24,14.86l.04-.04C124.8,5.29,148.56,0,173.6,0c95.88,0,173.6,77.73,173.6,173.6Z"/>
    <g>
      <path class="cls-1" d="M177.69,310.88h-.2c-11.9,0-23.72-1.53-35.12-4.56l3.08-11.6c10.4,2.76,21.18,4.16,32.04,4.16h.2v12ZM213.01,306.22l-3.11-11.59c10.49-2.82,20.58-7.01,30-12.47l6.02,10.38c-10.33,5.99-21.4,10.59-32.9,13.68ZM109.42,292.74c-10.32-5.94-19.84-13.22-28.3-21.65l8.47-8.5c7.72,7.68,16.41,14.33,25.82,19.75l-5.99,10.4ZM274.14,270.81l-8.49-8.48c7.7-7.71,14.35-16.38,19.79-25.79l10.39,6c-5.96,10.31-13.25,19.82-21.69,28.26ZM59.36,242.9c-6-10.32-10.62-21.38-13.73-32.88l11.58-3.13c2.83,10.48,7.05,20.57,12.52,29.98l-10.37,6.04ZM309.46,209.62l-11.59-3.1c2.79-10.45,4.21-21.29,4.21-32.22v-.17s12,0,12,0v.07c0,12.07-1.55,23.95-4.61,35.42ZM52.91,174.69h-12v-.35c0-11.88,1.52-23.63,4.51-34.97l11.6,3.06c-2.73,10.34-4.11,21.06-4.11,31.86v.39ZM69.36,112.38l-10.41-5.97c5.93-10.33,13.2-19.86,21.6-28.33l8.52,8.45c-7.67,7.73-14.3,16.42-19.71,25.85ZM114.77,66.63l-6.05-10.36c10.31-6.02,21.37-10.66,32.86-13.78l3.15,11.58c-10.48,2.85-20.56,7.08-29.96,12.56ZM209.09,54.01c-10.45-2.85-21.08-4.29-31.6-4.29h-.56s-.06-12-.06-12h.6c11.6,0,23.29,1.58,34.77,4.71l-3.15,11.58Z"/>
      <path class="cls-1" d="M305.57,125.82c3.45,8.57,6.5,25.49,6.5,25.49l9.54,2.34,2.62,6.5-12.02,1.67-9.82,7.13-2.62-6.5,5.25-8.3s-9.54-14.3-12.99-22.87l-.21-.52-23.9,23.52-2.2-5.46s-2.2-5.46,2.16-10.39c3.18-3.6,12.76-16.53,17.67-23.24-2.67-6.63-4.99-12.39-4.99-12.39,0,0-3.89-12.33,1.95-14.68,5.84-2.35,11.59,9.23,11.59,9.23,0,0,2.32,5.76,4.99,12.39,8.19,1.43,24.05,4.11,28.84,4.5,6.56.53,8.76,5.99,8.76,5.99l2.2,5.46-33.53-.39.21.52Z"/>
    </g>
  </g>
</svg>